<svg xmlns="http://www.w3.org/2000/svg" width="198" height="98"><g fill="none" fill-rule="evenodd"><path fill="#FFF" fill-rule="nonzero" d="M20.6 13H24v23.4h11.2v2.8H20.6V13zm32.1 0v15.6c0 5.9 2.6 8.4 6.1 8.4 3.9 0 6.4-2.6 6.4-8.4V13h3.4v15.3c0 8.1-4.3 11.4-9.9 11.4-5.4 0-9.4-3.1-9.4-11.2V13h3.4zm51.9 25.5c-1.2.6-3.7 1.2-6.9 1.2-7.4 0-13-4.7-13-13.3 0-8.2 5.6-13.8 13.7-13.8 3.3 0 5.3.7 6.2 1.2l-.8 2.8c-1.3-.6-3.1-1.1-5.3-1.1-6.2 0-10.3 3.9-10.3 10.8 0 6.4 3.7 10.6 10.1 10.6 2.1 0 4.2-.4 5.5-1.1l.8 2.7zm16-25.5h3.4v12.7h.1c.7-1 1.4-2 2.1-2.8l8-9.9h4.2l-9.5 11.2 10.3 15.1h-4l-8.7-12.9-2.5 2.9v10h-3.4V13zM159 39.3V28.1L150.7 13h3.9l3.7 7.3c1 2 1.8 3.6 2.6 5.4h.1c.7-1.7 1.6-3.4 2.7-5.4l3.8-7.3h3.9l-8.8 15.1v11.2H159zM20.2 81.9c1.5.9 3.7 1.7 6.1 1.7 3.5 0 5.5-1.8 5.5-4.5 0-2.5-1.4-3.9-5-5.2-4.3-1.5-6.9-3.7-6.9-7.4 0-4.1 3.4-7.1 8.5-7.1 2.7 0 4.6.6 5.8 1.3l-.9 2.8c-.9-.5-2.6-1.2-5-1.2-3.6 0-5 2.1-5 3.9 0 2.5 1.6 3.7 5.2 5.1 4.4 1.7 6.7 3.9 6.7 7.7 0 4.1-3 7.6-9.2 7.6-2.5 0-5.3-.7-6.7-1.7l.9-3zM55 59.7V86h-3.4V59.7H55zm22.6 2.9h-8v-2.9H89v2.9h-8V86h-3.4V62.6zm39.7 11.1h-10.2v9.5h11.4V86h-14.8V59.7h14.2v2.8h-10.8v8.3h10.2v2.9z"/><path stroke="#ED1C24" stroke-width="3" d="M146 71c4-2 5-7 12-4 6 3 8 11 16 9 3-1 5-3 7-5"/><path fill="#FFF" fill-rule="nonzero" d="M3 3.8v91h191.5v-91H3zm194.5-3v97H0V.8h197.5zM3 51h191.5v-3H3v3z"/></g></svg>