<svg width="32" height="30" fill="none" xmlns="http://www.w3.org/2000/svg"><g clip-path="url(#clip0)"><path d="M21.336 0H9.698C4.343 0 0 4.198 0 9.375v11.25C0 25.802 4.343 30 9.698 30h11.638c5.356 0 9.699-4.198 9.699-9.375V9.375C31.035 4.198 26.692 0 21.336 0zm6.789 20.625c0 3.619-3.045 6.563-6.789 6.563H9.698c-3.743 0-6.789-2.944-6.789-6.563V9.375c0-3.619 3.046-6.563 6.79-6.563h11.637c3.744 0 6.789 2.944 6.789 6.563v11.25z" fill="url(#paint0_linear)"/><path d="M15.517 7.5c-4.284 0-7.758 3.358-7.758 7.5 0 4.142 3.473 7.5 7.758 7.5s7.759-3.358 7.759-7.5c0-4.142-3.474-7.5-7.759-7.5zm0 12.188c-2.673 0-4.849-2.104-4.849-4.688 0-2.586 2.176-4.688 4.85-4.688 2.672 0 4.848 2.102 4.848 4.688 0 2.584-2.176 4.688-4.849 4.688z" fill="url(#paint1_linear)"/><path d="M23.858 7.937c.57 0 1.034-.447 1.034-1 0-.551-.463-.999-1.034-.999s-1.034.448-1.034 1 .463.999 1.034.999z" fill="url(#paint2_linear)"/></g><defs><linearGradient id="paint0_linear" x1="2.841" y1="27.254" x2="27.334" y2="1.916" gradientUnits="userSpaceOnUse"><stop stop-color="#FFC107"/><stop offset=".507" stop-color="#F44336"/><stop offset=".99" stop-color="#9C27B0"/></linearGradient><linearGradient id="paint1_linear" x1="10.031" y1="20.303" x2="20.631" y2="9.337" gradientUnits="userSpaceOnUse"><stop stop-color="#FFC107"/><stop offset=".507" stop-color="#F44336"/><stop offset=".99" stop-color="#9C27B0"/></linearGradient><linearGradient id="paint2_linear" x1="23.127" y1="7.644" x2="24.539" y2="6.183" gradientUnits="userSpaceOnUse"><stop stop-color="#FFC107"/><stop offset=".507" stop-color="#F44336"/><stop offset=".99" stop-color="#9C27B0"/></linearGradient><clipPath id="clip0"><path fill="#fff" d="M0 0h31.035v30H0z"/></clipPath></defs></svg>