<svg xmlns="http://www.w3.org/2000/svg" viewBox="0 0 1151.58 382.37"><defs><clipPath id="clip-path" transform="translate(38.52)"><circle class="cls-1" cx="177" cy="176.6" r="164.6"/></clipPath><style>.cls-1{fill:none}.cls-7{fill:#e5cfc4}.cls-8{fill:#a59b97}</style></defs><g id="Слой_2" data-name="Слой 2"><g id="Layer_1" data-name="Layer 1"><path d="M485.77 139.44a4 4 0 01.75 2.3 3.51 3.51 0 01-.88 2.37 3 3 0 01-2.37 1 3.28 3.28 0 01-2.71-1.29l-14.68-20.36-15.56 20.65a3.32 3.32 0 01-2.44 1 3 3 0 01-2.34-.95 3.35 3.35 0 01-.84-2.3 4 4 0 01.81-2.44l15.77-21-14.89-20.59a3.37 3.37 0 01-.68-2.1 3.59 3.59 0 01.88-2.43 3 3 0 012.37-1 2.91 2.91 0 012.51 1l14.54 20.16 15.16-20.16a3.26 3.26 0 012.5-1 2.89 2.89 0 012.27 1 3.35 3.35 0 01.85 2.3 4.18 4.18 0 01-.75 2.3l-15.43 20.5zm55.01 2.24a3.29 3.29 0 01-1 2.43 3.39 3.39 0 01-2.5 1 3.51 3.51 0 01-1.93-.58 3.23 3.23 0 01-1.33-1.53l-3.79-9.47h-24.29l-3.86 9.47a3.77 3.77 0 01-1.35 1.59 3.37 3.37 0 01-1.9.58 3.23 3.23 0 01-2.47-1 3.51 3.51 0 01-1-2.47 4.36 4.36 0 01.34-1.56l19-45.4a3.44 3.44 0 013.32-2.37 3.28 3.28 0 013.31 2.37l19.09 45.54a4.39 4.39 0 01.36 1.4zm-12.92-14l-9.68-24.09-9.88 24.09zm80.73-34.42a3.46 3.46 0 012.5-1 3.36 3.36 0 012.47 1 3.46 3.46 0 011 2.54v45.81a3.46 3.46 0 01-1 2.54 3.36 3.36 0 01-2.47 1h-54.67a3.47 3.47 0 01-3.52-3.52V95.8a3.37 3.37 0 011-2.54 3.49 3.49 0 012.51-1 3.36 3.36 0 013.51 3.52v43.1h20.3V95.8a3.37 3.37 0 011-2.54 3.48 3.48 0 012.5-1 3.36 3.36 0 013.52 3.52v43.1h20.3V95.8a3.37 3.37 0 011.05-2.54zm62.39 1.93a4 4 0 01-.46 1.81l-18.61 38.23a22.55 22.55 0 01-5.78 7.75 11.23 11.23 0 01-7.21 2.74 10.82 10.82 0 01-6-1.83 3.29 3.29 0 01-1.26-1.25 3.24 3.24 0 01-.44-1.59 3.15 3.15 0 01.55-1.69 2.92 2.92 0 012.7-1.49 4.5 4.5 0 012.24.61 4.43 4.43 0 002.16.61 5.76 5.76 0 003.76-1.73 15.18 15.18 0 003.41-4.84l.68-1.42-20.54-33.74a3.47 3.47 0 01-.54-1.83 3 3 0 011.82-2.64 3.58 3.58 0 011.9-.54 3 3 0 012.64 1.76L649.73 125l14.95-30.65c.68-1.4 1.58-2.1 2.71-2.1a4.06 4.06 0 011.69.41 2.75 2.75 0 011.9 2.53zm19.45 48.92a3.54 3.54 0 01-6.06-2.5V95.8a3.37 3.37 0 011-2.54 3.46 3.46 0 012.5-1h36a3.36 3.36 0 013.52 3.52v45.81a3.46 3.46 0 01-1 2.5 3.54 3.54 0 01-6.06-2.5V98.51h-29v43.1a3.46 3.46 0 01-.9 2.5zM777.92 93a26.59 26.59 0 017.6 4.42 3.18 3.18 0 011.09 1.26 3.86 3.86 0 01.27 1.52 2.87 2.87 0 01-1 2.23 3.29 3.29 0 01-2.27.88 3.65 3.65 0 01-2.37-.88 19.68 19.68 0 00-5.38-3.43 19 19 0 00-6.84-1 18 18 0 00-9.71 2.78 20 20 0 00-7 7.54 22 22 0 000 20.81 20.08 20.08 0 007 7.51 18 18 0 009.71 2.78 20.43 20.43 0 0012.5-4.51 3.93 3.93 0 012.24-.81 2.79 2.79 0 012.13.91 3.42 3.42 0 01.85 2.4 3.46 3.46 0 01-1.09 2.51 25.75 25.75 0 01-16.58 5.89 25.31 25.31 0 01-13.23-3.59 25.77 25.77 0 01-9.43-9.81 27.77 27.77 0 01-3.46-13.74 27.41 27.41 0 013.41-13.67 26.16 26.16 0 019.43-9.82 25.16 25.16 0 0113.23-3.58 26.31 26.31 0 018.9 1.4zm65.13-.35a3.28 3.28 0 011.49-.37 3.36 3.36 0 013.52 3.52v45.81a3.46 3.46 0 01-1 2.5 3.54 3.54 0 01-6.06-2.5v-38.3l-32.34 40.6a3.58 3.58 0 01-1.22.88 3.51 3.51 0 01-1.49.34 3.6 3.6 0 01-2.61-1 3.32 3.32 0 01-1-2.5V95.8a3.32 3.32 0 011-2.5 3.6 3.6 0 012.61-1 3.28 3.28 0 012.44 1 3.51 3.51 0 01.94 2.54v38.37l32.48-40.6a4 4 0 011.24-.96zm62.39.61a3.48 3.48 0 012.5-1 3.35 3.35 0 012.47 1 3.42 3.42 0 011 2.54v45.81a3.42 3.42 0 01-1 2.54 3.35 3.35 0 01-2.47 1 3.47 3.47 0 01-3.51-3.52v-20.19h-31.4v20.17a3.46 3.46 0 01-1 2.5 3.37 3.37 0 01-2.54 1 3.47 3.47 0 01-3.52-3.52V95.8a3.4 3.4 0 011-2.54 3.5 3.5 0 012.51-1 3.36 3.36 0 013.52 3.52v19.42h31.4V95.8a3.37 3.37 0 011.04-2.54zm56.47-.26a26.73 26.73 0 017.61 4.42 3.23 3.23 0 011.08 1.26 3.86 3.86 0 01.27 1.52 2.87 2.87 0 01-1 2.23 3.27 3.27 0 01-2.27.88 3.64 3.64 0 01-2.36-.88 19.72 19.72 0 00-5.4-3.43 18.92 18.92 0 00-6.83-1 17.93 17.93 0 00-9.71 2.78 20 20 0 00-7 7.54 22.12 22.12 0 000 20.81 20.11 20.11 0 007 7.51 17.93 17.93 0 009.71 2.78 20.45 20.45 0 0012.45-4.47 3.9 3.9 0 012.23-.81 2.76 2.76 0 012.13.91 3.37 3.37 0 01.85 2.4 3.45 3.45 0 01-1.08 2.51 25.75 25.75 0 01-16.58 5.89 25.26 25.26 0 01-13.23-3.59 25.8 25.8 0 01-9.44-9.81 27.87 27.87 0 01-3.45-13.74 27.5 27.5 0 013.45-13.71 26.18 26.18 0 019.44-9.82 25.1 25.1 0 0113.23-3.62 26.35 26.35 0 018.9 1.44zm64.25 49a3.1 3.1 0 01-1 2.23 3.3 3.3 0 01-2.44.95 3.9 3.9 0 01-1.52-.31 3.17 3.17 0 01-1.18-.84l-19.42-22.61h-7.24v20.17a3.46 3.46 0 01-1 2.5 3.54 3.54 0 01-6.06-2.5V95.8a3.37 3.37 0 011-2.54 3.5 3.5 0 016 2.54v19.42h7l18.22-21.79a3.15 3.15 0 012.5-1.22 3.07 3.07 0 012.44 1.09 3.11 3.11 0 01.88 2.16 3.72 3.72 0 01-.95 2.37l-17.12 19.89 18.88 21.93a3.39 3.39 0 011.01 2.35zm54.74-49.35a3.25 3.25 0 011.49-.37 3.37 3.37 0 013.52 3.52v45.81a3.43 3.43 0 01-1 2.5 3.35 3.35 0 01-2.53 1 3.47 3.47 0 01-3.52-3.52v-38.3l-32.34 40.62a3.39 3.39 0 01-1.22.88 3.47 3.47 0 01-1.48.34 3.6 3.6 0 01-2.61-1 3.33 3.33 0 01-1.05-2.5V95.8a3.33 3.33 0 011.05-2.5 3.6 3.6 0 012.61-1 3.24 3.24 0 012.43 1 3.52 3.52 0 01.95 2.54v38.37l32.48-40.6a3.88 3.88 0 011.22-.96zm63.67 0a3.28 3.28 0 011.49-.37 3.36 3.36 0 013.52 3.52v45.81a3.46 3.46 0 01-1 2.5 3.54 3.54 0 01-6.06-2.5v-38.3l-32.34 40.6a3.81 3.81 0 01-2.71 1.22 3.56 3.56 0 01-2.6-1 3.33 3.33 0 01-1-2.5V95.8a3.33 3.33 0 011-2.5 3.56 3.56 0 012.6-1 3.28 3.28 0 012.44 1 3.51 3.51 0 01.94 2.54v38.37l32.48-40.6a4.12 4.12 0 011.24-.96zM1119.74 76a3.39 3.39 0 01.88 2.37 3.38 3.38 0 001.76 2.91 9 9 0 008.79 0 3.38 3.38 0 001.76-2.91 3.39 3.39 0 01.88-2.37 2.85 2.85 0 012.17-.94 2.81 2.81 0 012.16.94 3.35 3.35 0 01.88 2.37 7.45 7.45 0 01-1.59 4.6 10.34 10.34 0 01-4.4 3.28 17 17 0 01-12.51 0 10.34 10.34 0 01-4.4-3.28 7.45 7.45 0 01-1.59-4.6 3.35 3.35 0 01.88-2.37 3 3 0 014.33 0zM501.52 246a4 4 0 01-1.31 2.88 4.25 4.25 0 01-3.15 1.23 5 5 0 01-2-.4 4.15 4.15 0 01-1.53-1.09l-25.01-29.23h-9.35v26a4.5 4.5 0 01-1.27 3.23 4.37 4.37 0 01-3.28 1.31 4.47 4.47 0 01-4.54-4.54v-59.11a4.38 4.38 0 011.31-3.28 4.5 4.5 0 013.23-1.27 4.35 4.35 0 014.55 4.55v25.07h9l23.5-28.13a4 4 0 013.23-1.57 4.31 4.31 0 014.28 4.19 4.8 4.8 0 01-1.22 3.06l-22.14 25.68 24.38 28.31a4.4 4.4 0 011.32 3.11zm69.53-.49a4.27 4.27 0 01-1.31 3.15 4.4 4.4 0 01-3.22 1.34 4.66 4.66 0 01-2.49-.74 4.2 4.2 0 01-1.7-2.06l-4.9-12.23h-31.37l-5 12.23a4.84 4.84 0 01-1.75 2.06 4.42 4.42 0 01-2.44.74 4.14 4.14 0 01-3.19-1.36 4.47 4.47 0 01-1.27-3.18 5.47 5.47 0 01.44-2l24.55-58.63a4.44 4.44 0 014.28-3.06 4.26 4.26 0 014.28 3.06l24.64 58.8a5.57 5.57 0 01.45 1.88zm-16.68-18.08l-12.5-31.1-12.75 31.1zM637.62 183a4.52 4.52 0 013.24-1.27 4.36 4.36 0 013.19 1.27 4.46 4.46 0 011.26 3.28v59.15a4.42 4.42 0 01-1.26 3.27 4.32 4.32 0 01-3.19 1.27 4.47 4.47 0 01-4.55-4.54v-26h-40.53v26a4.5 4.5 0 01-1.27 3.23 4.57 4.57 0 01-7.82-3.23v-59.15A4.38 4.38 0 01588 183a4.53 4.53 0 017.78 3.28v25.07h40.53v-25.07a4.38 4.38 0 011.31-3.28zm69.68 27.65a19.6 19.6 0 018 7.25 19.88 19.88 0 012.84 10.58 21.71 21.71 0 01-2.84 11.09 19.92 19.92 0 01-8 7.65 24.1 24.1 0 01-11.58 2.78h-22.71a4.47 4.47 0 01-4.55-4.54v-59.62a3.83 3.83 0 011.27-3 5.27 5.27 0 016.55 0 3.79 3.79 0 011.27 3V208h18.17a25.12 25.12 0 0111.58 2.65zm-1.7 27.52q3.75-3.4 3.75-9.69t-3.71-9.48q-3.72-3.15-9.92-3.14h-18.2v25.68h18.2a14.12 14.12 0 009.88-3.37zm79.92-52.85a31.53 31.53 0 0112.32 12.4 39.39 39.39 0 010 36.22 31.49 31.49 0 01-12.32 12.45 38.69 38.69 0 01-36 0 31.1 31.1 0 01-12.28-12.45 39.71 39.71 0 010-36.22 31.17 31.17 0 0112.28-12.4 38.53 38.53 0 0136 0zm-31.36 7.25a24.49 24.49 0 00-9.22 9.61 29.64 29.64 0 000 27.26 24.76 24.76 0 009.26 9.65 27 27 0 0026.73 0 24.76 24.76 0 009.26-9.65 29.64 29.64 0 000-27.26 24.54 24.54 0 00-9.21-9.61 27.44 27.44 0 00-26.82 0zM873.07 183a4.51 4.51 0 013.24-1.27 4.36 4.36 0 013.21 1.27 4.46 4.46 0 011.26 3.28v59.15a4.42 4.42 0 01-1.26 3.27 4.32 4.32 0 01-3.19 1.27 4.47 4.47 0 01-4.55-4.54v-26h-40.55v26a4.5 4.5 0 01-1.27 3.23 4.57 4.57 0 01-7.82-3.23v-59.15a4.38 4.38 0 011.31-3.28 4.53 4.53 0 017.78 3.28v25.07h40.53v-25.07a4.38 4.38 0 011.31-3.28z" fill="#1e1813" stroke="#1e1813" stroke-width="4" stroke-miterlimit="10"/><g clip-path="url(#clip-path)"><circle cx="213" cy="197.5" r="184.87" fill="#bfe6f1"/><path d="M-9.26 217a39.14 39.14 0 00-1.1 6.6c0 5.77-56.61 20.26-9.3 107.94 17.36 32.18 150.79 12.78 153.58 19.83s-77.12-88.27-67.06-87 57 3.21 68.73 7.05 31.82 4.49 31.82 4.49 36.68 67.2 36.27 67.76c-18.27 25.63 161.49 9.65 168.76 6.31s-21.84-84.73-12.9-103.32c5.24-10.9-.82-40-8.86-66.91a22.51 22.51 0 002.5-10.38c0-8.81-4.91-16.29-11.76-19.05-.1.21-.2.41-.31.62-.11-.3-.21-.58-.32-.85a4.75 4.75 0 01.63.23 22.21 22.21 0 002.26-9.9c0-10.44-17.19-14-22.46-20.56-.15-.18-.28-.35-.44-.53-.84-17.84-13.71-32-29.47-32-10.2 0-19.2 5.94-24.51 15-3.45-1.44-11-11.1-23-5.52-1.8.83-3.32 3.81-5.23 6.87a42 42 0 00-21.12-5.37c-18.14 0-32.85 10.27-32.85 22.92a15.54 15.54 0 00.14 2 3.64 3.64 0 01-1 .75c-2.94 1.58-9.83 1.82-12.64 2.46a7.7 7.7 0 00-2.56-.44c-6.79 0-13.07-9.47-21.35-1.42-2.47 2.4-3 1.37-3 1.37l-15-2.88s-3.08-16-6.43-16-8.46-7.37-20.75-15.06c-5.34-3.34-9.32-1.34-13.48 1.4A43.17 43.17 0 0074 90.89a42.5 42.5 0 00-15.64 2.83c-8.11-3.19-10.48-3.08-17.71-1.14-3.64 1-16.26 4.84-18 12.07C10.78 107 2 116.62 2 128.09a22 22 0 002.39 10c-5.26 2.35-9.13 10.4-9.13 20a30 30 0 003 13.43 6.19 6.19 0 00-4 5.46 5.88 5.88 0 003.14 5c.27-.09.55-.17.83-.24a5 5 0 010 .71 6.1 6.1 0 01-.87-.47c-7.45 2.35-12.92 10.17-12.92 19.46A21.49 21.49 0 00-9.26 217z" transform="translate(38.52)" fill="#364d23"/><path d="M337.5 239.58a27.14 27.14 0 011 5.15c0 4.5-2 27.64-3 33s-28.1-10.71-30.6-5.21-26.5 3-35.5 4-51 2.5-61.5 5.5-28.48 3.5-28.48 3.5-60.63-20.43-60.27-20c16.35 20-42.15 18-48.65 15.38s-55-3.7-63-18.2c-4.69-8.5.73-31.18 7.93-52.2a15.76 15.76 0 018.28-23c.09.16.18.32.28.48.1-.23.19-.45.29-.66a5.4 5.4 0 00-.57.18 15.76 15.76 0 0112.1-23.39c5.89-9.87 9.37-12.48 14.09-17.61l.39-.41a26.42 26.42 0 0148.3-13.3c3.09-1.13 9.81-8.66 20.56-4.31 1.61.65 3 3 4.68 5.36a41.93 41.93 0 0118.9-4.19c16.23 0 29.39 8 29.39 17.88a10.64 10.64 0 01-.12 1.59 3.05 3.05 0 00.9.59c2.63 1.23 8.8 1.42 11.31 1.92a7.66 7.66 0 012.29-.35c6.08 0 11 7.22 11 16.13a22.19 22.19 0 01-1.25 7.46 2.43 2.43 0 00.87-.39c1.33-1 3-6 3-6l13.43-2.25s2.75-12.5 5.75-12.5 7.57-5.75 18.57-11.75c4.78-2.61 8.34-1.05 12.06 1.09a43.78 43.78 0 0113.07-1.84 42.92 42.92 0 0114 2.21c7.26-2.49 9.38-2.41 15.85-.89 3.25.76 14.55 3.77 16.13 9.41 10.55 1.86 18.44 9.34 18.44 18.29a15.38 15.38 0 01-2.14 7.79c4.71 1.83 8.17 8.11 8.17 15.58a20.91 20.91 0 01-2.64 10.47c2.15.83 3.61 2.43 3.61 4.26a4.58 4.58 0 01-2.81 3.9c-.24-.07-.49-.14-.74-.19a3 3 0 000 .55 5.51 5.51 0 00.78-.36 15.76 15.76 0 015.85 27.33z" transform="translate(38.52)" fill="#406731"/><path class="cls-7" d="M77.21 316.76s72.92 4 73.21 2.5 23.49-25.5 23.49-25.5 9.75-12.09 11-17c.94-3.77-1.33-15.5-1.33-15.5l-3.84-3.5s11.06-16-3-26-11.36-13-9.19-15 13.16-11.5 13.33-14.5 9.58-6.66 8.21-9.83a101.63 101.63 0 01-4.21-13.67c-.17-1.5 0-14.5 0-14.5l-14.14-9.5s-8.18-4-9.35-3.5-22.12.5-30.39 2.5-37.7-6.16-37.7-6.16-40.27 12.33-40 11.67.12 29-.75 42-16.28 71.5-15.1 76.5 39.76 38.99 39.76 38.99z" transform="translate(38.52)"/><path class="cls-8" d="M171.91 190.62l18.85-4.96 9.37 3.06 11.6.37 16.02 4.2-8.5.33-11.19-2.69-9.16.83-26.99-1.14zm-77.02 4.98l23.34-9.94 17.97 2.23 13.21-1.46 21.08 4.2-15.17 2.16-6.59-3.61h-19.37l-34.47 6.42z"/><path class="cls-8" d="M164.38 219.93l-10.17-4.67s-12.66.34-13.41 0-20 4.67-20 4.67l-45.81-4 18 6.83 31.24 6 21.5-5h21.84zm15.19 38.41h-29s-25.16 7.16-25.85 7.16-30.51-4.66-30.51-4.66 6.73 4.83 9.47 4.66 11 1 11.9 1.67 12.8 2.33 13.49 2 14.64-6.5 14.64-6.5l17.23-1.5zm-26.74 30.46l-38.55 15.36s-32.35-2.83-32.9-2.83S68.32 304 68.32 304s5.43-4.32 7.65-4.17 14.54-.69 15.28-1.28 4.66-2.29 5.21-2 16.22 4.19 16.22 4.19l27-9.9z" transform="translate(38.52)"/><path d="M209.52 265.08c-7.85 0-15.69-.09-23.53-.21-3 1.3-5.14 3.27-5.53 5.92-3.67 24.55-94.11 48.81-94.11 48.81l54.25 46.26s28.54-9.15 34.89-11.59c20-7.66 23.76-46.45 38.52-62.82 12.5-13.86 5.99-22.62-4.49-26.37z" transform="translate(38.52)" fill="#78ced8"/><path d="M153.73 349.71c-41.81 34.09 19.66 13.5 19.66 13.5l29.67-18.33 15.5-24L246.64 266l-41.48-.94s32.92 15.87-51.43 84.65z" transform="translate(38.52)" fill="#62a9ae"/><path class="cls-7" d="M191.34 341.39l18-38.13s12.36-15.22 12.33-18.5c0-4.9-20.14-28.72-21.75-33.5-1.05-3.12 1.17-14.5 1.17-14.5a11.63 11.63 0 010-6.5c1.08-3 7.08-7.5 7.08-7.5l-5.5-13-5.24-9-3-23 3-11 3.66-3.5s15.42-2 16.25-2.5 13.33-6.5 16.83-7a69 69 0 0110.5 0s8-4.94 11.5-.22 28 6.72 28 6.72 11 1 12.5 4S316.52 184.18 315 192s.94 55.92-.06 66.42-17.25 34.33-17.75 38.33 8.63 44.63 8.63 44.63z" transform="translate(38.52)"/><path class="cls-8" d="M247.9 222.76l17.31-1.68 13.85-4.56 14.1-9.61h19.53l-5.01 2.4-17.24 2.89-10.14 8.88-32.4 1.68zm13.34 62.79l18.13-12.09 15.71 1.59 34.57 3.18-5.32 5.09-44-6.68-19.09 8.91zm-20.88-46.96l14.46 3.41h11.66l18.44-9.49-13.58 9.49-7.37 3.23-18-3.23-5.61-3.41zm-2.07-36.16l14.63-9.86 18 1.52-19.13 1.07-13.5 7.27zm11.97 101.73l25.5 15.44 29.5-5.12 17.25 5.12 7.14-7.72-10.39 1.6-16.25-3.61-25.25 4.11-28.25-9.82"/><circle class="cls-1" cx="206.07" cy="174.21" r="154.38"/></g><circle cx="215.52" cy="177" r="165" stroke="#62a9ae" stroke-width="3" stroke-miterlimit="10" fill="none"/><circle cx="215.52" cy="177" r="174.5" stroke="#364a20" stroke-width="5" stroke-miterlimit="10" fill="none"/></g></g></svg>