<svg width="30" height="30" fill="none" xmlns="http://www.w3.org/2000/svg"><g clip-path="url(#clip0)" fill="#fff"><path d="M15 8.022A5.985 5.985 0 009.022 14 5.985 5.985 0 0015 19.978 5.985 5.985 0 0020.978 14 5.985 5.985 0 0015 8.022zm4.107 3.486h-1.533a8.507 8.507 0 00-.458-1.544 5.826 5.826 0 00-.158-.35 4.835 4.835 0 012.15 1.894zm-5.14-1.097c.305-.739.71-1.217 1.033-1.217.322 0 .728.478 1.033 1.217.136.33.25.699.342 1.097h-2.75a7.05 7.05 0 01.342-1.097zm-3.587 4.91a4.79 4.79 0 010-2.641h1.872a13.405 13.405 0 000 2.64H10.38zm.513 1.172h1.533c.115.563.268 1.084.458 1.544.05.122.103.239.158.35a4.835 4.835 0 01-2.15-1.894zm1.99-6.529c-.19.46-.342.98-.457 1.544h-1.533a4.836 4.836 0 012.149-1.895 5.872 5.872 0 00-.158.351zm3.15 7.625c-.305.74-.71 1.217-1.033 1.217-.322 0-.728-.478-1.033-1.217a7.035 7.035 0 01-.342-1.096h2.75a7.053 7.053 0 01-.342 1.096zm.538-2.268h-3.142a12.264 12.264 0 010-2.641h3.142a12.267 12.267 0 010 2.64zm.387 3.066c.055-.111.108-.228.159-.35.19-.46.342-.981.457-1.544h1.533a4.836 4.836 0 01-2.149 1.894zm.79-3.066a13.435 13.435 0 000-2.641h1.872a4.79 4.79 0 010 2.64h-1.872zm3.292 6.257a.591.591 0 00-.414-.171.59.59 0 00-.586.587.588.588 0 001 .413.59.59 0 000-.829zm-2.934-.171H9.374a.586.586 0 000 1.172h8.732a.586.586 0 000-1.172zm-.85 2.556h-4.512a.586.586 0 000 1.172h4.512a.586.586 0 000-1.172z"/><path d="M24.612 13.736a.586.586 0 00.586-.587V6.09a2.934 2.934 0 00-1.738-2.676V2.209A2.2 2.2 0 0022.65.5a2.201 2.201 0 00-1.834-.456L5.273 3.17l-.009.002a.586.586 0 00-.461.572v25.67c0 .323.262.586.586.586h16.878a2.934 2.934 0 002.93-2.93v-8.495a.586.586 0 00-1.171 0v8.495a1.76 1.76 0 01-1.759 1.758H5.975V4.33h16.292c.97 0 1.759.789 1.759 1.758v7.061c0 .324.262.587.586.587zM22.288 3.158H11.275l9.772-1.965a1.033 1.033 0 011.24 1.016v.95z"/><path d="M25.026 15.492a.59.59 0 00-.829 0 .59.59 0 00.414 1.001.59.59 0 00.587-.586.59.59 0 00-.172-.415z"/></g><defs><clipPath id="clip0"><path fill="#fff" d="M0 0h30v30H0z"/></clipPath></defs></svg>