<svg width="16" height="16" fill="none" xmlns="http://www.w3.org/2000/svg"><path d="M7.42 1.185a7.111 7.111 0 00-3.65 1.033A7.856 7.856 0 002.1 3.565L2.157.893A.375.375 0 001.79.51h-.01a.375.375 0 00-.374.367l-.078 3.679a.375.375 0 00.485.486l3.68-.078a.375.375 0 10-.008-.75h-.008l-3.012.064a7.084 7.084 0 011.69-1.418 6.36 6.36 0 013.266-.926A6.23 6.23 0 0112.1 4.03c1.085 1.204 1.732 2.818 1.732 4.317 0 1.5-.647 3.113-1.731 4.318A6.229 6.229 0 017.42 14.76a6.162 6.162 0 01-3.024-.769 6.573 6.573 0 01-2.144-1.933.375.375 0 10-.611.435 7.329 7.329 0 002.392 2.154 6.902 6.902 0 003.387.863 6.97 6.97 0 005.238-2.343c1.205-1.339 1.924-3.14 1.924-4.82 0-1.679-.72-3.48-1.924-4.819A6.97 6.97 0 007.42 1.185z" fill="#fff"/></svg>