<svg width="30" height="30" fill="none" xmlns="http://www.w3.org/2000/svg"><g clip-path="url(#clip0)" fill="#fff"><path d="M29.415 22.375h-6.23c.065-.183.101-.38.101-.585v-.585h2.89a3.797 3.797 0 003.794-3.793 3.768 3.768 0 00-1.111-2.683l-.378-.377-3.278-3.278-1.67-1.67a10.005 10.005 0 00-7.121-2.95H.586a.585.585 0 000 1.17h15.826c2.377 0 4.612.927 6.293 2.608l.671.67h-6.745a2.227 2.227 0 00-2.224 2.225c0 1.226.998 2.224 2.224 2.224h11.194l.206.206c.495.495.768 1.154.768 1.854a2.626 2.626 0 01-2.622 2.623H.586a.585.585 0 000 1.17H3.19v.586c0 .205.036.402.101.585H.616a.585.585 0 000 1.171h9.834a.585.585 0 000-1.17H6.603c.065-.184.1-.38.1-.586v-.585h13.07v.585c0 .205.037.402.102.585h-4.857a.585.585 0 000 1.171h14.397a.585.585 0 000-1.17zM16.63 14.181a1.055 1.055 0 010-2.108h7.916l2.107 2.107H16.631zM5.533 21.79a.586.586 0 01-1.171 0v-.585h1.17v.585zm16.582 0a.586.586 0 01-1.17 0v-.585h1.17v.585z"/><path d="M13.146 22.547a.59.59 0 00-.414-.172.59.59 0 00-.585.586.59.59 0 00.585.585.59.59 0 00.586-.585.59.59 0 00-.172-.414zM9.717 10.903H2.821a.585.585 0 000 1.17h6.896a1.055 1.055 0 010 2.108H.586a.585.585 0 000 1.17h9.131a2.227 2.227 0 002.224-2.224 2.227 2.227 0 00-2.224-2.224zM1 11.074a.589.589 0 00-.828 0 .59.59 0 00-.172.414.59.59 0 00.585.585.589.589 0 00.586-.585.587.587 0 00-.172-.414z"/></g><defs><clipPath id="clip0"><path fill="#fff" d="M0 0h30v30H0z"/></clipPath></defs></svg>